<svg version="1.1" id="Layer_1" xmlns="http://www.w3.org/2000/svg" x="0" y="0" viewBox="0 0 500 500" style="enable-background:new 0 0 500 500" xml:space="preserve"><style>.st2{fill:#231f20}.st3{fill:#fdf8ff}.st4{fill:#fbc495}.st6{fill:#00a1ff}.st8{fill:#ff9203}.st9{fill:#1f1927}.st10{fill:#febb3e}.st11{fill:#ffe2b3}.st12{fill:#10087c}.st13{fill:#ffbb3d}.st14{fill:#ffd24a}</style><ellipse cx="250.44" cy="451.56" rx="188.74" ry="27.36" style="fill:#00ca98"/><path class="st2" d="M147.3 391.16c-1.94 2.55-4.05 4.95-6.07 7.43-2.09 2.42-4.18 4.84-6.39 7.16 1.94-2.55 4.01-4.99 6.07-7.43 2.14-2.39 4.18-4.85 6.39-7.16zM163.26 403.18c-1.94 2.55-4.05 4.95-6.07 7.43-2.09 2.42-4.18 4.84-6.39 7.16 1.94-2.55 4.01-4.99 6.07-7.43 2.14-2.39 4.18-4.84 6.39-7.16z"/><path class="st3" d="m147.57 391.57-11.04 12.06-2.05 11.52 7.69 6.79 11.51-7.58 9.72-11.2z"/><path class="st2" d="M261.17 418.85c.4 3.18.58 6.37.87 9.55.2 3.19.41 6.38.45 9.58-.4-3.18-.63-6.37-.87-9.55-.14-3.19-.41-6.38-.45-9.58zM280.99 416.26c.4 3.18.58 6.37.87 9.55.2 3.19.41 6.38.45 9.58-.4-3.18-.63-6.37-.87-9.55-.15-3.19-.41-6.38-.45-9.58z"/><path class="st3" d="m261.57 417.93.55 16.35 6.6 9.65 10.24-.52 2.92-13.47-.89-14.8z"/><path class="st4" d="M268.56 186.51s6.58 4.11 17.75 32.44c0 0 6.07 17.3 9.91 19.86 3.84 2.56 1.89 9.16-2.39 9.13-4.27-.03-15.98 3.63-15.04-2.76l.93-6.39s-3.31-5.98-11.61-10.48c-8.3-4.5-4.77-40.52-4.77-40.52l5.22-1.28z"/><path class="st3" d="M277.86 182.61c-.93-2.4-17.15-48.38-53.83-60.86l-11.43 2.16s-25.26 11.68-26.68 58.01c0 0 .91 24.31 11.95 32.12 5.49 3.88 17.91-8.77 21.72-11.51 3.81-2.74 4.4-4.25 8.26-5.37 3.86-1.12 6.49-6.29 2.05-8.96l-2.07-1.69 36.54 6.64s1.51-.14 4.2-4.43c2.68-4.29 7.41-3.3 7.41-3.3s2.81-.41 1.88-2.81z"/><path class="st3" d="M227.01 129.28s4.45-1.38 9.21 2.65c0 0-6.86-12.36-13.98-11.68l4.77 9.03z"/><path class="st3" d="M228.26 128.59s-4.12 2.51-5.11 7.47c0 0-12.52-11.57-15.15-10.64 0 0 2.79-3.87 5.77-2.99l14.5 5.54-.01.62z"/><path class="st2" d="M208.01 125.42c1.6.07 2.99 1.03 4.32 1.84 1.32.88 2.56 1.88 3.77 2.9 2.4 2.07 4.62 4.33 6.8 6.62l-.58.22c.12-1.69.69-3.28 1.63-4.64.92-1.37 2.19-2.46 3.6-3.24l.02-.01h.03c.86-.08 1.73-.1 2.6 0 .87.13 1.74.22 2.59.45.85.23 1.63.67 2.39 1.11.74.49 1.4 1.08 1.94 1.77-.75-.46-1.48-.87-2.25-1.21-.74-.39-1.55-.62-2.33-.95-.78-.3-1.56-.73-2.39-.84-.83-.14-1.69-.14-2.54-.1l.05-.01c-1.38.77-2.59 1.89-3.35 3.27-.77 1.35-1.23 2.92-1.33 4.42l-.05.8-.53-.58c-2.12-2.32-4.31-4.59-6.62-6.72-1.16-1.06-2.34-2.1-3.62-3.02-1.26-.88-2.57-1.91-4.15-2.08z"/><path class="st2" d="M228.2 122.32c2.03 1.11 3.74 2.73 5.22 4.5 1.49 1.76 2.75 3.72 3.72 5.8-2.43-3.91-5.45-7.33-8.94-10.3zM241.5 132.35c3.81 3.95 6.5 8.83 8.93 13.71 2.41 4.92 4.45 10.02 6.23 15.19 1.8 5.17 3.29 10.44 4.67 15.73l1.85 7.99 1.56 8.05c-1.33-5.3-2.65-10.6-4.1-15.86l-2.26-7.86c-.85-2.59-1.63-5.2-2.53-7.77-1.69-5.18-3.76-10.23-5.99-15.19-2.34-4.9-4.78-9.85-8.36-13.99zM278.25 183.45c.13.75-.03 1.67-.74 2.16-.69.5-1.57.45-2.33.42-1.54-.1-3.04.43-4.29 1.3-.62.44-1.19.97-1.67 1.57-.47.59-.84 1.31-1.31 1.93-.46.63-.94 1.26-1.52 1.8-.55.48-1.29 1.14-2.08.84.8.24 1.46-.44 1.97-.95.53-.56 1.01-1.18 1.44-1.82.46-.63.79-1.33 1.28-1.97a8.68 8.68 0 0 1 1.7-1.67c1.27-.97 2.93-1.43 4.51-1.3.77.05 1.57.12 2.2-.31.62-.41.91-1.23.84-2z"/><path class="st6" d="M232.24 282.11c-.74-3.05-1.37-5.11-1.8-5.59"/><path d="M280.87 351.36c-.01-14.83-5.12-53.31-5.12-53.31l-3.52-46.11s-4.72-34.88-6.4-50.96c-1.13-10.81-7.7-32.71-10.49-41.29-2.79-8.57-7.29-19.25-12.17-25.58-4.66-6.04-10.14-8.69-11.35-9.1 10.6 5.72 18.48 30.22 18.72 33.31.04.53-17.02 4.38-17.02 4.38-5.28-20.66-23.17-35.79-25.29-35.87-2.13-.05-3.4 2.79-3.4 2.79 13.68 8.6 21.78 31.63 24.68 43.82 2.92 12.19-1.77 15.89-1.77 15.89s-28.09 12.64-31.26 21.88c-2.6 7.61.69 26.43 1.92 32.75.28 1.42.24 2.89-.08 4.31-5.1 22.22-7.12 39.56-7.81 51.79-.72 12.72-5.05 24.99-12.78 35.11-15.88 20.8-34.3 56.01-34.56 56.63-.34.81 18.27 16.16 19.59 15.48 1.34-.66 53.51-62.38 59.17-75.88 3.42-8.15 11.05-41.8 15.2-59.48-.67 14.6 1.2 26.51 4.26 49.27 1.15 8.54 4.97 29.32 6.35 40.43 1.37 11.11 10.76 60.11 10.76 60.11 6.54.98 25.15-3 24.82-3.48-.33-.46-2.41-52.08-2.45-66.89z" style="fill:#2020ea"/><path class="st6" d="M228.26 122.5s.02 0 .02.02h.02M228.4 122.56a.18.18 0 0 1-.09-.04c.02.03.07.05.09.04"/><path class="st8" d="M202.47 93.3s-10.37 4.42-4.15-4.5 18.41-12.13 18.41-12.13l9.11.67s4.65.06 2.17 2.08c-2.47 2.01-25.54 13.88-25.54 13.88z"/><path class="st4" d="M221.65 110.79c-.23 2.34-.32 6.11.92 8.64 1.9 3.9 4.16 8.77 4.88 9.21 0 0-7.65-4.42-14.3-5.91 0 0 1.54-2.36 1.17-6.14-.4-3.81-.4-6.94-1.23-7.26-.83-.32-6.35-3.76-6.57-7.42l-.3-3.47-1.74-2.41s-.05-15.06.18-15.17c.25-.08 8.44-2.66 8.56-2.56.12.11 12.51-2.2 12.51-2.2s11.38 22.28 3.7 30.9c-2.66 2.99-5.37 3.9-7.78 3.79z"/><path class="st9" d="M210.93 81.47s2.89 4.54.4 6.55c-2.48 2.02-.83 3.29-.34 5.03.5 1.74 1.92 4.39-1.29 4.59 0 0 .19 4.37-.16 3.67-4.58-9.33-3.62-4.44-3.14-.52.06.49.16 2.38.71 3.17 0 0-2.36-.61-4.98-3.3s-3.57-13.43-3.57-13.43l12.37-5.76z"/><path class="st4" d="M210.52 99.75s.01 2.4-2.69 1.63c-2.7-.77-4.69-4.03-2.94-6.67 1.75-2.64 4.42.05 4.63 1.78"/><path class="st8" d="M210.52 99.75c.02.5-.08 1.07-.49 1.46-.39.41-1 .53-1.53.48-1.07-.09-2.07-.59-2.82-1.33-.76-.72-1.32-1.67-1.5-2.71-.22-1.04.1-2.13.7-2.94-.51.89-.67 1.93-.45 2.89.21.96.77 1.84 1.5 2.49.73.65 1.65 1.1 2.6 1.23.47.04.97.02 1.32-.29.37-.29.6-.77.67-1.28z"/><path class="st10" d="M220.64 74.14c1.22 1.86 2.42 3.31 3.57 4.44-3.04.83-7.49 2.47-12.54 4.71-9.25 4.12-16.19 8.72-15.2 10.18 0 0-.53-.31-.2-1.72.35-1.43-.3-4.96-.3-4.96s-1.08-3.65-1.14-7.98c-.04-3.64 1.08-7.96 7.92-11.1 5.45-.37 13.86.19 17.89 6.43z"/><path class="st10" d="M228.31 77.68s-.98.2-2.05.41c-1.46-1.2-3.02-2.93-4.6-5.35-3.39-5.17-9.69-6.41-14.96-6.51.18-.08.5-.15.75-.21 11.09-3.1 16.02 6.54 17.06 8.09.94 1.35 3.24 3.08 3.8 3.57z"/><path class="st11" d="M226.26 78.09c-.57.1-1.25.26-2.02.49h-.02c-1.15-1.13-2.35-2.58-3.57-4.44-4.03-6.24-12.44-6.8-17.88-6.42.55-.31 2.45-1.03 3.95-1.49 5.2.07 11.57 1.34 14.96 6.51 1.56 2.42 3.12 4.14 4.58 5.35z"/><path class="st3" d="M223.39 72.34c.23.42.4.83.52 1.25.14.49.22.97.19 1.39 0 .3-.05.59-.13.84-.05.12-.11.25-.17.34-.01.02-.02.03-.03.05-.99.04-2.26-.9-3.08-2.38-.82-1.49-.95-3.07-.39-3.89.39-.01.8.12 1.22.38.69.39 1.36 1.1 1.87 2.02z"/><path class="st11" d="M224.44 71.76c.76 1.47.94 2.98.41 3.82-.05.1-.14.19-.22.27-.07.08-.15.14-.27.22l-.11.04-.19.07c-.09.01-.15-.03-.26-.03.06-.09.12-.22.17-.34.09-.24.14-.49.17-.78.02-.44-.05-.94-.22-1.45-.12-.42-.29-.83-.52-1.25-.51-.92-1.18-1.63-1.87-2.02-.42-.25-.83-.38-1.22-.38a1.175 1.175 0 0 1 .73-.51c1.16-.22 2.56.73 3.4 2.34z"/><path class="st8" d="M224.42 76.09c.02 0-.84.54-.97.59-1.12.38-2.7-.51-3.69-2.31-.92-1.66-.96-3.44-.14-4.15l.14-.09.15-.1c.16-.09 1.09-.68 1.28-.67l.02.04c-.1.02-.2.05-.28.1-.17.1-.32.23-.45.41-.56.82-.44 2.39.39 3.89.82 1.48 2.09 2.42 3.08 2.38-.01 0 .31-.02.47-.09zM215.46 108.35c1.13.92 2.46 1.54 3.84 1.91 1.38.37 2.85.39 4.25.21 1.4-.2 2.73-.84 3.87-1.7a14.76 14.76 0 0 0 3-3.11c-.72 1.26-1.68 2.41-2.84 3.31-1.15.91-2.5 1.62-3.97 1.88-1.47.24-2.97.09-4.39-.32-1.41-.41-2.75-1.13-3.76-2.18zM226.62 78.01c-2.37 1.23-4.86 2.12-7.35 3.03-2.51.83-5.02 1.66-7.63 2.21 2.38-1.2 4.87-2.11 7.35-3.03 2.51-.84 5.01-1.69 7.63-2.21z"/><path class="st9" d="M137.9 400.24c.65-.76 1.89-.4 2.04.59.63 4.32 2.42 12.54 6.91 12.48 5.07-.07 7.83-.89 8.6-1.16a.3.3 0 0 1 .36.12c1.65 2.74 18.89 31.62 15.7 34.55-1.49 1.37-3.76 1.26-5.83.71-2.52-.66-4.81-2.01-6.76-3.74l-31.04-27.58s-1.73-1.73-.23-3.81c1.1-1.55 7.2-8.63 10.25-12.16zM261.09 431.99c-.02-1 1.14-1.56 1.91-.92 3.36 2.8 10.17 7.72 13.47 4.69 3.73-3.43 5.24-5.88 5.63-6.61.07-.13.21-.19.35-.15 3.06.94 35.17 10.95 34.75 15.26-.19 2.01-1.96 3.45-3.87 4.42-2.32 1.19-4.92 1.72-7.53 1.73l-41.52.17s-2.44-.14-2.72-2.68c-.2-1.9-.39-11.25-.47-15.91z"/><path class="st2" d="M204.97 129.53c-.27.66-.78.95-1.16 1.43l-1.21 1.33c-.79.9-1.55 1.83-2.27 2.79a57.045 57.045 0 0 0-3.96 6c-2.38 4.16-4.3 8.58-5.76 13.14-3.02 9.1-4.38 18.71-4.61 28.3h-.1c.15-9.6 1.39-19.24 4.37-28.41 1.51-4.57 3.47-8.99 5.9-13.15 2.39-4.15 5.47-8.02 8.73-11.35l.07-.08zM236.6 127.73c4.27 2.12 8.01 5.17 11.51 8.39 3.49 3.25 6.66 6.83 9.63 10.54 2.99 3.71 5.6 7.71 8.15 11.73 1.25 2.03 2.42 4.1 3.63 6.15l3.28 6.34-3.49-6.22c-1.23-2.03-2.43-4.09-3.69-6.1-2.59-3.98-5.26-7.91-8.25-11.61-2.92-3.73-6.04-7.33-9.48-10.61-1.74-1.62-3.5-3.2-5.38-4.65-1.86-1.47-3.8-2.86-5.91-3.96z"/><path class="st8" d="M270 187.84c2.23 1.57 3.7 3.95 5.18 6.18 1.45 2.28 2.66 4.68 3.83 7.1 2.34 4.83 4.38 9.8 6.12 14.88-2.41-4.8-4.69-9.63-7.08-14.4-1.22-2.37-2.46-4.73-3.73-7.07-1.31-2.31-2.51-4.72-4.32-6.69zM297.68 245.36c-.25.78-.72 1.5-1.37 2.05-.62.57-1.62.82-2.37.86-1.59.24-3.21.44-4.83.57-1.62.1-3.25.17-4.88.13-.82-.03-1.63-.06-2.44-.19-.79-.15-1.66-.31-2.25-.91.64.52 1.49.58 2.28.64.8.07 1.6.06 2.41.03 1.61-.07 3.21-.24 4.82-.44 1.61-.17 3.21-.37 4.83-.48.85-.03 1.52-.07 2.2-.52.63-.44 1.18-1.05 1.6-1.74zM279.66 239.22l-.01-.44.01.04c-1.37-2.03-2.9-3.93-4.64-5.59-.88-.82-1.78-1.62-2.77-2.31-.95-.75-2.01-1.32-3.08-1.96l.03-.08c1.21.29 2.39.76 3.46 1.41 1.05.68 2.09 1.41 2.95 2.32 1.77 1.77 3.25 3.83 4.17 6.15l.01.03v.01l-.13.42z"/><path class="st12" d="M188.79 320.9c1.98-.79 3.98-1.18 5.97-1.54l2.99-.49c.5-.07.99-.18 1.47-.29.49-.11.97-.22 1.37-.56-.47 1.03-1.63 1.45-2.56 1.86-.98.41-2 .65-3.02.86-2.04.37-4.12.52-6.22.16zM186.44 324.18c1.57.9 2.9 1.83 4.3 2.68.7.43 1.42.77 2.16 1.16.75.35 1.53.61 2.38.92-1.75.47-3.67 0-5.23-.88-1.57-.89-2.92-2.18-3.61-3.88zM246.22 335.24c1.53-.46 2.94-.68 4.37-.93l2.14-.37c.72-.12 1.43-.3 2.23-.41-1.05 1.21-2.59 1.87-4.12 2.16-1.54.26-3.15.22-4.62-.45zM246.49 338.65c2.06-.12 4.04.08 6 .33.98.13 1.96.3 2.92.48.98.15 1.91.47 2.93.53-.93.52-2.03.59-3.03.61-1.02.01-2.03-.08-3.02-.24-1.98-.34-3.93-.83-5.8-1.71zM240.27 264.18c-.32 1.78-.79 3.49-1.2 5.21-.21.86-.42 1.71-.89 2.46-.45.77-.94 1.49-1.6 2.24-.27-.97-.2-1.93-.07-2.82.12-.91.53-1.71.95-2.5.87-1.57 1.75-3.12 2.81-4.59zM216.38 246.6c.88 2.36 1.07 4.92.89 7.46-.24 2.53-.94 5.08-2.26 7.34-1.24 2.3-3.19 4.23-5.42 5.5-2.2 1.38-4.76 1.91-7.2 2.11 2.25-1.08 4.45-2.01 6.22-3.55.96-.65 1.68-1.57 2.48-2.37.68-.92 1.37-1.81 1.89-2.83 2.13-4.05 2.91-8.73 3.4-13.66zM237.54 129.85c1.75 1.88 3.15 4.05 4.47 6.25 1.29 2.22 2.43 4.52 3.48 6.86 1.03 2.35 1.96 4.74 2.78 7.16l1.16 3.66.99 3.71c-1.71-4.82-3.47-9.61-5.56-14.25-1.03-2.33-2.12-4.63-3.33-6.87s-2.48-4.45-3.99-6.52zM213.8 138.07c2.27 2.44 3.98 5.33 5.57 8.24 1.56 2.94 2.98 5.95 4.23 9.02 1.25 3.08 2.41 6.19 3.45 9.34l1.49 4.75 1.33 4.79-3.31-9.37c-1.16-3.1-2.3-6.21-3.6-9.25-1.24-3.07-2.61-6.07-4.09-9.03-1.49-2.94-3.02-5.89-5.07-8.49zM231.01 155.21l2.95 7.35-.53-.29 13.09-2.66-12.88 3.54-.42.11-.11-.41z"/><path class="st8" d="M241.06 182.75c1.08-2.2 1.88-4.51 2.65-6.83.79-2.31 1.52-4.64 2.25-6.98 1.52-4.65 2.88-9.36 4.63-13.96-1.04 4.8-2.32 9.54-3.74 14.24-.74 2.34-1.53 4.67-2.43 6.96-.94 2.27-1.92 4.56-3.36 6.57zM240.5 144.76c1.6-3.19 3.7-6.08 6.05-8.77 1.23-1.29 2.52-2.57 4.05-3.56.78-.47 1.61-.9 2.54-1.09.92-.17 1.98.12 2.52.85-1.53-1.16-3.3-.09-4.59.9-1.35 1.06-2.59 2.29-3.74 3.6-2.4 2.56-4.53 5.36-6.83 8.07zM209.72 183.25c1.84-2.24 3.77-4.39 5.68-6.55 1.97-2.11 3.87-4.28 5.86-6.36l5.86-6.35c1.91-2.15 3.91-4.24 5.63-6.56-1.47 2.49-3.26 4.79-5.09 7.02-1.81 2.26-3.76 4.39-5.69 6.55-1.91 2.17-3.95 4.21-5.95 6.3-2.05 2.03-4.12 4.05-6.3 5.95z"/><path class="st4" d="M206.55 185.99s21.75-19.22 31.04-36.13c6.82-12.42 10.81-16.69 14.4-18.17 1.97-.82 4.22.25 4.96 2.26l4.65 12.65c.47 1.29-.05 2.71-1.23 3.41-1.52.89-3.81 1.82-6.51 1.52-4.9-.55-5.04 17.83-13.34 32.31-8.3 14.48-17.92 22.4-17.92 22.4l-16.05-20.25z"/><path class="st2" d="M212.57 172.37c.23-.12.45-.25.68-.37-.23-1.83-.4-3.67-.48-5.52-.2-3.3-.2-6.61-.16-9.93.06-3.31.18-6.63.39-9.95-1.03 6.57-1.31 13.25-1.03 19.92.11 1.96.31 3.91.6 5.85z"/><path class="st13" d="M349.9 33.88c-1.51-2.93-3.69-5.48-6.53-7.65-2.84-2.17-6.46-3.72-10.85-4.67-4.39-.94-9.72-.83-16 .34-5.01.93-9.99 2.56-14.93 4.88-4.95 2.32-9.11 5.09-12.47 8.31l7.53 12.75-2.27 2.66 4.09.42c3.45-2.71 6.66-4.82 9.64-6.31 2.97-1.48 6.22-2.56 9.76-3.21 3.53-.66 6.36-.3 8.5 1.06 2.13 1.37 3.42 3.25 3.87 5.66.54 2.91.09 5.66-1.35 8.26-1.45 2.6-3.08 5.27-4.91 7.99-1.27 1.89-2.48 3.83-3.64 5.81a36.188 36.188 0 0 0-2.88 6.22c-.77 2.16-1.28 4.44-1.55 6.82s-.14 4.98.38 7.78c.17.91.39 1.98.67 3.22.05.23.11.45.16.67l-3.66.68 4.5 1.96 19.43-3.62c-.21-.58-.39-1.27-.54-2.08-.15-.8-.26-1.4-.34-1.81-.32-1.7-.28-3.45.09-5.23.38-1.78.95-3.52 1.7-5.22.75-1.69 1.63-3.34 2.66-4.93 1.02-1.59 2.01-3.1 2.97-4.52 1.27-1.89 2.57-3.9 3.9-6.01a41.13 41.13 0 0 0 3.35-6.53c.9-2.24 1.55-4.62 1.94-7.13.4-2.51.34-5.17-.19-7.98-.5-2.79-1.52-5.66-3.03-8.59z"/><path class="st14" d="M313.58 41.21c-3.5.65-6.71 1.7-9.65 3.15-2.94 1.45-6.12 3.5-9.54 6.14l-9.18-15.3c3.33-3.13 7.45-5.83 12.34-8.1 4.89-2.26 9.82-3.86 14.77-4.78 6.2-1.16 11.47-1.28 15.8-.39 4.33.9 7.9 2.39 10.7 4.48 2.8 2.09 4.93 4.55 6.42 7.38 1.48 2.84 2.48 5.61 2.98 8.32.51 2.72.55 5.29.15 7.72-.4 2.44-1.05 4.74-1.95 6.91s-2.01 4.29-3.34 6.34c-1.32 2.05-2.62 4-3.88 5.84-.95 1.38-1.93 2.84-2.95 4.39-1.02 1.54-1.9 3.14-2.65 4.78a25.28 25.28 0 0 0-1.69 5.06c-.38 1.73-.42 3.41-.11 5.06.07.39.18.97.33 1.75.14.78.32 1.45.53 2.01l-19.2 3.58c-.38-.93-.7-2-.97-3.2-.28-1.2-.49-2.24-.65-3.12-.51-2.71-.63-5.22-.35-7.53.27-2.31.79-4.51 1.55-6.61.76-2.1 1.72-4.11 2.87-6.03 1.15-1.92 2.35-3.8 3.62-5.64 1.82-2.65 3.44-5.23 4.88-7.76 1.43-2.53 1.89-5.19 1.37-8.01-.43-2.33-1.7-4.15-3.8-5.47-2.12-1.29-4.91-1.62-8.4-.97z"/><path class="st13" d="M342.24 112.53c.65 3.5.02 6.42-1.89 8.75s-4.3 3.76-7.16 4.3c-2.87.53-5.61.06-8.23-1.43s-4.26-3.98-4.91-7.48c-.65-3.5-.02-6.41 1.89-8.75 2.94-3.6 7.99-5.22 12.46-3.91 3.96 1.16 7.08 4.43 7.84 8.52z"/><path class="st14" d="M338.44 113.24c.65 3.5.02 6.42-1.89 8.75s-4.3 3.76-7.16 4.3c-2.87.53-5.61.06-8.23-1.43s-4.26-3.98-4.91-7.48c-.65-3.5-.02-6.41 1.89-8.75 1.91-2.33 4.3-3.76 7.16-4.3 2.86-.53 5.6-.06 8.23 1.43 2.62 1.48 4.26 3.98 4.91 7.48z"/><path class="st3" d="M198.04 170.04c3.6 5.02 10.79 5.71 15.35 1.53.05-.05.1-.09.15-.14 0 0 5.81-6.38 10.88-.88 0 0 4.63 3.69 8.52 11.12 2.61 4.98 4.53 9.49 5.51 11.92.53 1.3.77 2.69.74 4.09-.07 2.97-.43 8.12-2.08 10.08-2.36 2.79-1.6 4.54-11.26 6.92-.22.05-.44.1-.67.14-1.52.28-7.56 1.3-11.95 1.09 0 0-8.66.13-16.08-3.24-1.85-.84-3.39-2.25-4.45-3.99-1.24-2.03-2.85-5.05-3.63-8.01-1.36-5.16-2.94-14.67-3.09-17.98-.15-3.3 6.1-18.75 8.83-16.54.81.68 1.97 2.14 3.23 3.89z"/><path class="st2" d="M212.92 215.89c3.94.01 9.6-.45 13.36-1.56 3.73-1.09 7.4-2.83 8.68-4.72 2.48-2.98 4.11-5.76 3.72-9.6-.31-3.87-.77-7.69-2.37-11.25-1.63-3.55-3.5-7.04-5.59-10.36-2.12-3.27-4.41-6.58-7.58-8.78-1.57-1.06-3.54-1.63-5.36-1.02-1.82.57-3.3 1.95-4.63 3.35-1.34 1.43-2.55 2.99-3.85 4.49-1.3 1.45-2.68 3.02-4.59 3.65 1.88-.7 3.18-2.3 4.43-3.79 1.24-1.53 2.38-3.14 3.69-4.64 1.31-1.47 2.81-2.92 4.78-3.6 1.99-.72 4.21-.12 5.89.98 3.42 2.25 5.73 5.62 7.9 8.91 2.14 3.35 4.03 6.82 5.72 10.43 1.64 3.61 2.07 7.53 2.38 11.55.37 3.97-1.45 6.62-4.01 10.13-1.34 1.94-5.29 3.68-9.1 4.7-3.84.99-9.53 1.3-13.47 1.13zM202.38 214.52c-9.85.1-14.54-10.48-15.82-18.84-.48-2.93-.74-5.89-.66-8.85.19 2.95.58 5.87 1.16 8.75 1.57 8.21 5.77 18.28 15.32 18.94z"/></svg>