<svg xmlns="http://www.w3.org/2000/svg" xml:space="preserve" id="Layer_1" x="0" y="0" style="enable-background:new 0 0 500 500" version="1.1" viewBox="0 0 500 500"><style>.st0{fill:#fdf8ff}.st1{fill:#2020ea}.st3{fill:#ff9203}.st4{fill:#231f20}.st5{fill:#fbc495}.st7{fill:#00a1ff}.st8{fill:#1f1927}.st9{fill:#febb3e}.st10{fill:#ffe2b3}.st11{fill:#10087c}.st12{fill:#ffc244}.st13{fill:#ffbb3d}.st14{fill:#ffde6a}.st15{fill:#fff}</style><path d="M275.92 123.89s-2.16-2.44-10.23 7.34-7.57 52.83-7.57 52.83l40.96 15.85c7.22 22.62 12.67 33.67 16.35 33.12 5.33-.79 6.93-25.88 4.82-75.3-.28-6.56-2.17-13.01-5.75-18.54-.03-.04-.05-.08-.08-.13-3.93-6.04-10.21-12.81-19.62-15.75l-18.88.58z" class="st0"/><path d="M240.9 349.21c.86 14.61 1.93 65.65 1.64 66.13-.3.5 18.3 3.3 24.69 1.93 0 0 6.29-48.89 6.97-59.93.68-11.04 3.2-31.76 3.81-40.26 1.64-22.63 2.77-34.5 1.22-48.85 5.17 17.18 14.72 49.91 18.59 57.74 6.39 12.97 61.58 70.69 62.95 71.26 1.34.59 18.77-15.68 18.39-16.45-.3-.6-20.6-34.21-37.51-53.76-8.23-9.52-13.24-21.36-14.72-33.85-1.43-12.03-4.47-29-10.84-50.61a10.13 10.13 0 0 1-.34-4.24c.83-6.31 2.94-25.06-.09-32.41-3.69-8.92-32.15-19.68-32.15-19.68s-4.85-3.37-2.71-15.56c2.12-12.2 8.72-35.41 21.69-44.71 0 0-1.43-2.73-3.53-2.55-2.09.2-18.82 16.2-22.78 36.9 0 0-17.06-2.77-17.05-3.29.06-3.06 6.35-27.71 16.45-33.99-1.16.48-6.41 3.42-10.64 9.66-4.43 6.54-8.23 17.34-10.46 25.97-2.23 8.62-7.38 30.63-7.84 41.35-.68 15.96-3.22 50.64-3.22 50.64l-.68 45.69c-.01-.02-2.72 38.24-1.84 52.87z" class="st1"/><ellipse cx="250.18" cy="444.93" rx="189.09" ry="27.41" style="fill:#00ca98"/><path d="M213.21 84.73c-2.16-1.87-4.12-3.87-6.28-5.64-1.04-.92-2.14-1.77-3.31-2.47-1.13-.67-2.53-1.34-3.77-.5.42-.6 1.25-.85 2-.82.76.05 1.47.3 2.14.6 1.34.62 2.49 1.5 3.61 2.4 2.14 1.9 4.09 3.99 5.61 6.43zM215.09 113.03c-1.33-1.32-2.34-2.92-3.3-4.51-.93-1.62-1.77-3.28-2.56-4.96-1.51-3.39-2.92-6.85-3.79-10.48 1.57 3.37 3.04 6.76 4.63 10.09.77 1.68 1.56 3.35 2.38 5 .8 1.65 1.63 3.29 2.64 4.86z" class="st3"/><path d="M265.43 141.12c-3.11 1.08-6.35 1.36-9.56 1.35-3.21-.08-6.43-.47-9.52-1.61 3.25-.51 6.4-.5 9.55-.47 3.16.08 6.3.18 9.53.73z" class="st4"/><path d="M241.79 111.9c-1.97-1.22-3.83-2.58-5.69-3.94-1.81-1.42-3.66-2.8-5.4-4.32-1.75-1.5-3.53-2.97-5.2-4.57-1.68-1.58-3.36-3.19-4.75-5.04 1.66 1.61 3.46 3.03 5.22 4.51l5.35 4.35c1.81 1.42 3.54 2.94 5.32 4.39 1.74 1.51 3.48 3.01 5.15 4.62z" class="st3"/><path d="M244.42 113.44S225 100.26 216 88.37c-6.43-8.49-9.98-11.05-13.27-12.67-1.58-.78-3.58.39-4.1 1.9l-3.26 9.53c-.33.97.19 1.99 1.24 2.45 1.34.58 3.34 1.16 5.62.8 4.14-.64 5.28 12.86 13.15 23.11s16.49 15.61 16.49 15.61l12.55-15.66z" class="st5"/><path d="M269.71 134.14c.07-.18.19-.31.31-.44.61-3.7 1.88-7.4 3.25-10.93-9.69-2.37-18.62-7.22-25.31-13.59l.02.63-1.17-1.69c-.03-.05-.06-.09-.08-.14-.47-.48-.93-.98-1.38-1.48-2.12-1.23-5.23.05-6.35 2.16-1.42 2.69-2.77 2.96-5.55 5.44-2.78 2.48-12.7 11.63-12.88 16.58-.18 4.95 26.09 10.17 26.09 10.17 7.75.78 14.46.72 20.27.15.93-2.28 1.88-4.56 2.78-6.86z" class="st0"/><path d="M228.76 136.24c-1.86-.62-3.72-1.28-5.49-2.18-.88-.45-1.74-.97-2.47-1.71-.35-.37-.69-.82-.77-1.4-.03-.57.06-1.06.19-1.56.58-1.96 1.69-3.65 2.87-5.24 1.19-1.59 2.49-3.07 3.83-4.52 2.72-2.85 5.54-5.63 8.73-7.97.78-.59 1.51-1.19 2.08-1.95.58-.72.94-1.72 1.75-2.4 1.49-1.34 3.84-1.88 5.57-.83-1.8-.92-3.97-.16-5.29 1.13-.71.62-.99 1.57-1.6 2.41-.58.84-1.34 1.54-2.12 2.14-3.11 2.35-5.86 5.17-8.59 7.95-1.34 1.42-2.64 2.88-3.82 4.43-1.15 1.55-2.29 3.17-2.87 4.98-.97 1.95 1.12 3.24 2.7 4.18 1.69.97 3.51 1.71 5.34 2.42l-.04.12zM247.66 109.19c7.2 6.27 15.73 10.79 24.87 13.52-4.68-.95-9.2-2.68-13.43-4.93-4.2-2.3-8.14-5.13-11.44-8.59zM295.03 123.32c6.32 1.75 11.96 5.65 16.27 10.61 4.33 4.93 7.62 10.94 8.87 17.45.7 3.24.8 6.57.81 9.81l.11 9.79c.07 6.53.06 13.06.03 19.58-.28-6.53-.55-13.05-.73-19.56l-.27-9.78c-.04-3.27-.16-6.5-.87-9.65-.68-3.15-1.71-6.23-3.16-9.1-1.45-2.87-3.33-5.54-5.39-8.02-4.12-4.96-9.48-8.99-15.67-11.13z" class="st4"/><path d="M268.72 132.24s6.19-11.83 13.47-11.58l-4.29 8.39c0-.01-4.61-1.12-9.18 3.19zM291.6 121.57c2.97-1.05 6.04 2.63 6.04 2.63-1.4-.39-5.23 2.65-8.63 5.7-.82-2.01-1.78-3.97-2.89-5.89l5.48-2.44z" class="st0"/><path d="M282.93 135.73c-1.32-4.88-5.65-7.13-5.65-7.13l-.05-.63 8.89-3.96c1.11 1.92 2.07 3.88 2.89 5.89-3.23 2.91-6.08 5.83-6.08 5.83z" class="st0"/><path d="M297.64 124.2c-1.59.11-2.91 1.15-4.17 2.03-1.27.92-2.45 1.97-3.59 3.05-2.28 2.16-4.43 4.47-6.5 6.84l-.5.58-.08-.78c-.15-1.4-.75-2.83-1.61-4a9.365 9.365 0 0 0-3.43-2.8l.05.01c-.9-.01-1.77-.1-2.63.04-.84.13-1.68.48-2.53.72-.84.25-1.62.61-2.3 1.18-.69.55-1.35 1.14-2.01 1.73.63-.62 1.24-1.26 1.91-1.85a5.82 5.82 0 0 1 2.32-1.34c.86-.24 1.67-.58 2.57-.73.9-.13 1.8-.02 2.67.01h.03l.02.01c.69.34 1.39.67 2.01 1.13.65.43 1.21.98 1.72 1.57 1.01 1.2 1.71 2.66 1.88 4.29l-.59-.2c2.13-2.34 4.31-4.64 6.68-6.75 1.2-1.04 2.42-2.05 3.74-2.93 1.32-.83 2.73-1.79 4.34-1.81zM277.23 122.21c-1.89 1.37-3.54 3.02-5.06 4.78-1.51 1.77-2.76 3.74-3.85 5.81.93-2.14 2.21-4.13 3.68-5.95 1.48-1.8 3.23-3.43 5.23-4.64z" class="st4"/><path d="M276.73 122.58s-.02 0-.02.02h-.02M276.6 122.65c.02 0 .07-.02.09-.05-.02.02-.07.05-.09.05" class="st7"/><path d="M300.73 92.35s10.64 3.71 3.87-4.67-19.16-10.8-19.16-10.8l-9.07 1.2s-4.64.34-2.05 2.17c2.61 1.84 26.41 12.1 26.41 12.1z" class="st3"/><path d="M282.62 110.68c.37 2.29.69 5.98-.39 8.54-1.66 3.94-3.62 8.86-4.31 9.33 0 0 7.38-4.8 13.93-6.66 0 0-1.68-2.22-1.55-5.96.16-3.76-.02-6.84.78-7.2.81-.36 6.11-4.08 6.11-7.68l.09-3.42 1.59-2.47s-.88-14.79-1.11-14.88c-.25-.07-8.61-2.11-8.72-1.99-.12.11-12.64-1.4-12.64-1.4s-10.01 22.56-1.8 30.56c2.86 2.76 5.62 3.48 8.02 3.23z" class="st5"/><path d="M291.55 81.25s-2.61 4.63 0 6.46 1.04 3.18.64 4.92-1.65 4.42 1.57 4.42c0 0 .08 4.31.38 3.59 4-9.43 3.35-4.58 3.11-.7-.03.49-.02 2.35-.52 3.15 0 0 2.33-.74 4.78-3.54s2.75-13.4 2.75-13.4l-12.71-4.9z" class="st8"/><path d="M293.08 99.18s.14 2.36 2.79 1.44 4.44-4.24 2.53-6.72c-1.91-2.48-4.42.31-4.52 2.02" class="st5"/><path d="M293.08 99.18c.09.5.36.96.74 1.22.38.29.87.28 1.33.21.94-.18 1.82-.68 2.52-1.35s1.21-1.57 1.36-2.53c.16-.96-.06-1.99-.63-2.83.65.76 1.04 1.82.88 2.86-.13 1.03-.63 2-1.35 2.75-.71.77-1.67 1.32-2.72 1.46-.52.08-1.13 0-1.54-.38-.44-.36-.58-.92-.59-1.41z" class="st3"/><path d="M281.38 74.64c-1.11 1.9-2.21 3.4-3.3 4.58 3.09.63 7.64 1.97 12.83 3.87 9.51 3.49 16.73 7.59 15.83 9.08 0 0 .51-.34.09-1.7-.44-1.38 0-4.89 0-4.89s.85-3.65.65-7.9c-.18-3.58-1.57-7.75-8.61-10.42-5.47-.05-13.84 1.02-17.49 7.38z" class="st9"/><path d="M273.93 78.58s.99.14 2.08.28c1.38-1.27 2.84-3.06 4.27-5.53 3.07-5.28 9.3-6.88 14.56-7.29-.19-.07-.51-.11-.76-.16-11.28-2.38-15.62 7.38-16.57 8.97-.86 1.38-3.05 3.21-3.58 3.73z" class="st9"/><path d="M276.01 78.85c.58.07 1.27.18 2.05.36h.02c1.08-1.18 2.19-2.67 3.3-4.58 3.65-6.36 12.02-7.43 17.49-7.38-.57-.27-2.51-.86-4.04-1.22-5.19.39-11.49 2.02-14.56 7.29-1.43 2.48-2.88 4.27-4.26 5.53z" class="st10"/><path d="M278.52 73.04c-.2.42-.35.84-.44 1.26-.11.49-.16.96-.1 1.38.02.3.09.58.19.82.05.11.12.24.19.32.01.02.02.03.03.05.99-.02 2.2-1.02 2.93-2.52.73-1.51.76-3.07.15-3.84-.39.01-.79.17-1.2.44-.66.42-1.29 1.16-1.75 2.09z" class="st0"/><path d="M277.44 72.54c-.67 1.49-.75 2.99-.17 3.77.06.1.15.18.24.25.07.07.16.13.28.2l.11.03.19.05c.09.01.15-.04.26-.04a1.69 1.69 0 0 1-.19-.32c-.11-.23-.17-.47-.21-.76-.05-.43 0-.93.13-1.44.09-.42.24-.83.44-1.26.45-.93 1.08-1.67 1.74-2.1.41-.27.81-.43 1.2-.44-.14-.17-.29-.3-.47-.38a.887.887 0 0 0-.29-.08c-1.18-.14-2.52.89-3.26 2.52z" class="st10"/><path d="M277.73 76.78c-.02 0 .88.48 1 .52 1.14.3 2.67-.67 3.55-2.49.82-1.69.75-3.43-.11-4.09l-.14-.08-.16-.09c-.16-.08-1.13-.6-1.32-.58l-.02.04c.1.01.2.04.29.08.18.08.33.21.47.38.61.77.58 2.32-.15 3.84-.73 1.5-1.94 2.5-2.93 2.52 0 .02-.33.01-.48-.05zM288.66 107.91c-.95 1.11-2.25 1.89-3.63 2.38s-2.87.72-4.35.58c-1.48-.16-2.88-.77-4.08-1.6-1.22-.82-2.25-1.89-3.06-3.1.92 1.12 2.01 2.09 3.2 2.88 1.2.77 2.56 1.32 3.97 1.42 1.4.09 2.86-.01 4.22-.46 1.36-.45 2.66-1.13 3.73-2.1zM275.64 78.8c2.65.34 5.21 1.03 7.77 1.7 2.54.75 5.08 1.49 7.53 2.54-2.64-.37-5.2-1.04-7.77-1.7-2.54-.74-5.08-1.47-7.53-2.54z" class="st3"/><path d="M268.88 130.02c-1.28 2.17-2.31 4.47-3.27 6.78-.97 2.31-1.81 4.68-2.59 7.06-1.59 4.76-2.84 9.63-4.03 14.53l.59-3.74.77-3.71c.57-2.46 1.24-4.9 2.02-7.3.8-2.4 1.69-4.77 2.74-7.07 1.07-2.28 2.23-4.54 3.77-6.55zM293.4 135.58c-1.76 2.75-2.98 5.8-4.16 8.82-1.16 3.04-2.21 6.13-3.12 9.26-.97 3.11-1.77 6.27-2.61 9.42l-2.31 9.52.82-4.83.98-4.81c.71-3.19 1.53-6.36 2.45-9.5.93-3.14 2.02-6.23 3.26-9.26 1.3-3 2.7-6.01 4.69-8.62zM278.07 154.15l-1.28 7.69-.07.41-.43-.07-13.21-2.13 13.32 1.24-.49.35z" class="st11"/><path d="m375.7 384.41 10.35 10.01 2.42 10-6.39 6.38-10.52-6.04-9.14-9.31zM262.85 417.32l.39 14.39-5.27 8.84-9.03.09-3.29-11.67-.01-13.06z" class="st0"/><path d="M385.5 392.6c-.62-.63-1.69-.25-1.76.62-.32 3.83-1.45 11.14-5.39 11.34-4.46.22-6.92-.36-7.62-.56a.253.253 0 0 0-.31.13c-1.3 2.5-14.89 28.79-11.93 31.2 1.38 1.12 3.37.9 5.16.31 2.18-.72 4.12-2.02 5.74-3.65l25.78-25.9s1.42-1.62 0-3.36c-1.07-1.31-6.81-7.2-9.67-10.13zM264.56 430.8c.01-.88-1.01-1.37-1.69-.8-2.94 2.48-8.91 6.85-11.83 4.2-3.3-3-4.64-5.15-5-5.78a.259.259 0 0 0-.31-.13c-2.69.85-30.89 9.84-30.49 13.62.18 1.77 1.75 3.02 3.43 3.87 2.05 1.03 4.34 1.48 6.64 1.48l36.54-.09s2.15-.14 2.38-2.38c.18-1.66.29-9.89.33-13.99z" class="st8"/><path d="M286.04 272.34c-.39.5-.89 2.57-1.43 5.62M278.83 120.34h.02c0-.02.02-.02.02-.02M278.74 120.39c.02 0 .07-.02.09-.05-.02.02-.07.05-.09.05" class="st1"/><path d="M329.81 313.59c-3.06.41-6.17.23-9.15-.57-.94-.33-2.15-.61-2.66-1.56.79.63 1.87.61 2.82.8 2.93.38 6.09.65 8.99 1.33zM332.33 316.69c-1.48 3.08-4.9 5.64-8.42 5.23 3.27-1.04 5.79-3.03 8.42-5.23zM274.04 331.22c-2.81 1.06-6.34.77-8.71-1.16 2.93.63 5.7.82 8.71 1.16zM273.97 334.6c-2.73 1.27-5.63 2-8.61 2.28-.98.06-2.04.14-3-.25 3.85-.52 7.68-1.87 11.61-2.03zM275.6 260.77c2.13 2.79 3.81 6.04 4.24 9.55-1.74-3.05-3.33-6.12-4.24-9.55z" class="st11"/><path d="M270.16 128.13s-6.44 8.19-11.03 28.04M294.08 134.79s-6.92 7.97-13.66 36.62M278.14 152.74l-2.04 7.55-12.99-2.28" class="st1"/><path d="m149.87 117.78-7.87-3.19 9.26-31.72 15.07 6.11z" class="st12"/><path d="m149.8 87.87-2.35 8.06 12.1 4.9 4.18-7.32z" class="st13"/><path d="m203.33 63.52-1.69-.68c-5.67-2.29-12.13.44-14.43 6.11l-4.02 9.93c-2.3 5.67.44 12.13 6.11 14.43l1.69.69c5.67 2.3 12.13-.44 14.43-6.11l4.02-9.93c2.3-5.68-.43-12.14-6.11-14.44zm-.5 21.64c-1.68 4.14-6.4 6.14-10.54 4.46l-1.23-.5c-4.14-1.67-6.14-6.39-4.46-10.53l2.94-7.25c1.68-4.14 6.4-6.14 10.54-4.47l1.23.5c4.14 1.68 6.14 6.4 4.46 10.54l-2.94 7.25zM147.01 40.7l-1.69-.68c-5.67-2.3-12.13.44-14.43 6.11l-4.02 9.93c-2.3 5.67.44 12.14 6.11 14.43l1.69.68c5.67 2.3 12.13-.44 14.43-6.11l4.02-9.93c2.3-5.67-.44-12.13-6.11-14.43zm-.51 21.64c-1.68 4.14-6.4 6.14-10.54 4.46l-1.23-.5c-4.14-1.68-6.14-6.4-4.46-10.53l2.94-7.25c1.68-4.14 6.4-6.14 10.54-4.47l1.23.5c4.14 1.68 6.14 6.4 4.46 10.54l-2.94 7.25z" class="st14"/><path d="m155.89 115.24-16.43-6.66c-4.92-1.99-10.52.38-12.51 5.29l34.23 13.88c1.99-4.92-.38-10.52-5.29-12.51z" class="st12"/><path d="M171.57 96.68a3.514 3.514 0 0 1-4.57 1.94l-23.28-9.43a3.501 3.501 0 0 1-1.93-4.57c.73-1.8 2.77-2.66 4.57-1.93l23.28 9.43c1.79.72 2.66 2.77 1.93 4.56z" class="st14"/><path d="m140.35 84.24 34.24 13.87c5.67 2.3 12.13-.44 14.43-6.11l15.75-38.88-54.78-22.19-15.75 38.88c-2.3 5.66.44 12.13 6.11 14.43z" class="st12"/><path d="m189.01 91.99 15.75-38.88-20.54-8.32-19.91 49.15 10.27 4.16c5.67 2.3 12.13-.43 14.43-6.11zM126.95 113.87l34.23 13.88c.99-2.45.9-5.07-.05-7.34l-29.05-11.76a9.55 9.55 0 0 0-5.13 5.22z" class="st13"/><path d="M165.42 128.66a2.216 2.216 0 0 1-2.89 1.22l-37.7-15.27a2.205 2.205 0 0 1-1.22-2.88 2.213 2.213 0 0 1 2.89-1.22l37.7 15.28c1.13.45 1.68 1.74 1.22 2.87zM208.68 53.29c-.67 1.64-2.58 2.41-4.28 1.72l-55.46-22.46c-1.7-.69-2.55-2.57-1.88-4.21.66-1.64 2.58-2.41 4.29-1.72l55.45 22.47c1.7.67 2.54 2.56 1.88 4.2z" class="st14"/><path d="M153.03 33.23c.44-.2 1.45-1.26 1.45-1.26s.07 1.47.27 1.9c.2.44 1.26 1.46 1.26 1.46s-1.47.07-1.91.27c-.43.2-1.45 1.26-1.45 1.26s-.07-1.47-.27-1.9c-.19-.44-1.25-1.45-1.25-1.45s1.46-.09 1.9-.28z" class="st15"/><path d="M177.03 121.25c-.32-.18-.65-.37-.95-.58.32.18.62.37.9.53l.02.02c.03.01.03.01.03.03zM163.17 114.98c-.12-.02-.21-.02-.32-.02 0-.02.05-.05.05-.05.08 0 .17.02.27.07z" class="st13"/><path d="M177.03 121.25c-.32-.18-.65-.37-.95-.58.32.18.62.37.9.53l.02.02c.03.01.03.01.03.03z" class="st13"/><path d="M206.79 139.09c-1.26-.3-2.45-.75-3.64-1.2-1.16-.52-2.35-.98-3.47-1.6-2.26-1.16-4.52-2.39-6.48-4.06 2.32 1.07 4.62 2.09 6.91 3.18 1.16.5 2.26 1.13 3.4 1.69 1.11.63 2.23 1.24 3.28 1.99zM220.34 145.06c.11 0 .23 0 .33.01l.02.01c1.27.16 2.43.55 3.54 1.09 1.12.51 2.2 1.09 3.2 1.87-1.26-.17-2.43-.54-3.58-.99-1.16-.42-2.25-.98-3.25-1.77l.02.01c-.11-.07-.2-.15-.28-.23zM162.63 115.62c-.05-.41.12-.82.39-1.14.27-.33.67-.51 1.05-.66.8-.16 1.6-.1 2.25.42-.75.35-1.39.37-1.96.59-.6.11-1.04.34-1.73.79zM176.99 121.21h.04c.64-.08 1.08.17 1.54.39.39.32.8.62.98 1.25-.67.09-1.1-.15-1.55-.37-.39-.32-.79-.61-1-1.23h-.01v-.04zM174.33 136.62c-.36.2-.43.16-.49.12 0-.09-.01-.17.24-.45.34-.17.41-.14.49-.12.02.08.04.14-.24.45zM183.38 147.26c-1.8-1.49-3.33-3.25-4.86-5-1.47-1.8-2.94-3.6-4.14-5.59 1.79 1.54 3.32 3.27 4.86 5 1.46 1.77 2.94 3.55 4.14 5.59zM195.42 158.7c-.32.27-.42.24-.52.2-.06-.1-.11-.19.02-.55.3-.24.41-.22.52-.2.06.08.13.16-.02.55z" class="st3"/><path d="M163.17 114.98c-.12-.02-.21-.02-.32-.02 0-.02.05-.05.05-.05.08 0 .17.02.27.07z" class="st5"/><path d="M220.34 145.06c-.88 2.58-2.35 3.62-4.54 6.99-1.57 2.38-5.54 8.63-8.01 14.56-3.65-1.96-7.66-4.43-11.79-7.43-.37-.25-.74-.53-1.08-.83-.18-.12-.37-.28-.55-.42-.69-.53-1.38-1.08-2.05-1.66-.14-.12-.28-.25-.42-.39-.69-.62-1.43-1.32-2.19-2.05-1.64-1.59-3.39-3.39-5.12-5.26-.25-.23-.46-.48-.67-.72-.09-.09-.16-.18-.25-.28-.07-.07-.12-.14-.18-.21-.02-.05-.07-.07-.09-.12-3.6-4.18-6.58-8.05-9-10.59l-.05-.05c-2.19-2.26-3.97-3.41-5.44-2.7-.58.28-1.56.3-2.24.4 0 0-2.74.31-6.83-.4-4.11-.74-9.07-2.31-12.37-5.61-6.55-6.58-2.1-10.15 0-8.12 1.41 1.36 6.76 5.14 11 6.53 2.01.65 3.78.76 4.73-.18 2.95-2.95 2.35-6.46-.21-8.72-.85-.76-.92-2.03-.14-2.86.12 0 .21 0 .32.02a.555.555 0 0 0-.28-.07c1.52-1.59 6.14-1.59 14.1 6.3-.28-.16-.58-.35-.9-.53.3.21.62.39.95.58.02.02.02.05.05.05.05.02.07.05.09.07l.02.02c2.19 1.38 4.66 3.09 7.5 5.19 6.28 4.59 14.37 8.91 22.1 12.5.02 0 .05.02.07.05.62.28 1.25.55 1.85.83.62.3 1.27.58 1.89.85 1.25.58 2.49 1.11 3.69 1.62 2.16.98 4.21 1.86 6.04 2.64z" class="st5"/><path d="M184.58 148.57c1.73 1.87 3.48 3.67 5.12 5.26-1.83-1.73-3.58-3.51-5.12-5.26zM231.36 149.12l-7.78 24.5s-6.58-1.96-15.55-6.85c-.09-.05-.16-.09-.25-.16 2.47-5.93 6.44-12.18 8.01-14.56 2.19-3.37 3.67-4.41 4.54-6.99-1.82-.78-3.88-1.66-6.04-2.63 2.17.92 4.22 1.78 6.09 2.51.12.07.21.09.3.12 6.32 2.56 10.68 4.06 10.68 4.06z" class="st5"/><path d="M146.6 127.41c1.23 1.14 2.61 2.06 4.04 2.86 1.44.79 2.93 1.48 4.49 2 1.54.57 3.14.97 4.75 1.31 1.62.35 3.26.56 4.92.82-.84.06-1.68.08-2.52.09-.84-.06-1.68-.08-2.52-.19-1.68-.2-3.33-.62-4.95-1.14-1.58-.61-3.14-1.32-4.55-2.27-1.39-.96-2.71-2.08-3.66-3.48z" class="st3"/><path d="m303.84 140.69-.72 7.46s-9.92 25.13-60.53 32.55c0 0-34.82 1.78-36.42-4.35-1.6-6.14 7.43-20.48 9.99-24.39 2.57-3.92 4.15-4.67 4.94-8.42.62-2.94 4.04-5.49 7.15-4.63.75.47 1.5.94 2.28 1.39.05.05.11.09.16.15l2.09 1.71-.26-.76c20.71 11.06 49.84 12.72 71.32-.71z" class="st0"/><path d="M227.87 139.04c-.74-.09-1.44.02-2.13.18l.09-.03-.24.1-.04.01c-1.24.42-2.37 1.14-3.19 2.15-.45.47-.79 1.03-1.08 1.61-.27.56-.52 1.29-.87 1.9l-.08.1.02-.13c.02-.73.06-1.37.23-2.13.18-.73.59-1.38 1.03-1.98.97-1.12 2.3-1.99 3.79-2.18l-.04.01.17-.04.09-.03c.76-.08 1.57.03 2.25.36v.1zM207.83 166.63c-.64 1.9-1.23 3.81-1.58 5.74-.17.97-.24 1.94-.18 2.88.05 1 .31 1.71 1.11 2.21 1.54.99 3.53 1.48 5.44 1.9 1.93.44 3.9.77 5.87 1.18-2.01.06-4.02-.06-6.03-.35-1.98-.37-4.03-.71-5.83-1.97-.45-.3-.86-.74-1.12-1.3-.26-.59-.27-1.08-.31-1.62-.06-1.06.13-2.09.36-3.08.47-1.99 1.27-3.85 2.19-5.63l.08.04zM302.74 148.24c-2.45 5.44-6.62 9.92-11.13 13.78-4.57 3.85-9.78 6.86-15.14 9.42-5.37 2.59-11.06 4.41-16.77 6.05l-8.69 1.96-8.8 1.34 8.72-1.74 8.6-2.18c5.64-1.76 11.29-3.56 16.59-6.19 5.35-2.48 10.49-5.46 15.09-9.16 1.12-.96 2.26-1.9 3.34-2.89 1.03-1.05 2.14-2.04 3.08-3.17 1.99-2.18 3.81-4.55 5.11-7.22zM232.14 141.48c5.5 2.79 11.33 4.88 17.3 6.34a79.716 79.716 0 0 0 18.26 2.19c12.27.2 24.66-2.72 35.32-8.95-5.2 3.32-10.97 5.76-16.96 7.29-5.99 1.56-12.18 2.28-18.37 2.27-6.19-.08-12.36-.9-18.35-2.4-6-1.5-11.81-3.74-17.2-6.74z" class="st4"/><path d="m263.11 418.28.39 12.17" class="st15"/><path d="M263.11 418.28c.4 4.05.53 8.1.38 12.17-.39-4.05-.52-8.11-.38-12.17z" class="st4"/><path d="m245.89 416.55.11 12.38" class="st15"/><path d="M245.89 416.55c.33 4.12.37 8.25.11 12.38-.33-4.12-.37-8.25-.11-12.38z" class="st4"/><path d="m375.7 384.41 8.22 8.31" class="st15"/><path d="M375.7 384.41c2.93 2.58 5.67 5.35 8.22 8.31a83.753 83.753 0 0 1-8.22-8.31z" class="st4"/><path d="m362.68 395.87 8.04 8.56" class="st15"/><path d="M362.68 395.87c2.93 2.62 5.61 5.47 8.04 8.55a66.378 66.378 0 0 1-8.04-8.55z" class="st4"/><path d="M298.1 241.99c0 8.15 3.48 17.28 11.73 20.17 1.1.48 2.27.77 3.44 1.09-11.03-.6-16.7-11.1-15.17-21.26z" class="st11"/></svg>